<?xml version="1.0" encoding="UTF-8" standalone="no"?>
<!-- Created with Inkscape (http://www.inkscape.org/) -->

<svg
   xmlns:dc="http://purl.org/dc/elements/1.1/"
   xmlns:cc="http://creativecommons.org/ns#"
   xmlns:rdf="http://www.w3.org/1999/02/22-rdf-syntax-ns#"
   xmlns:svg="http://www.w3.org/2000/svg"
   xmlns="http://www.w3.org/2000/svg"
   xmlns:sodipodi="http://sodipodi.sourceforge.net/DTD/sodipodi-0.dtd"
   xmlns:inkscape="http://www.inkscape.org/namespaces/inkscape"
   width="182.95695mm"
   height="50.809097mm"
   viewBox="0 0 182.95696 50.809096"
   version="1.1"
   id="svg101"
   inkscape:version="0.92.4 (5da689c313, 2019-01-14)"
   sodipodi:docname="glasses_1.svg">
  <defs
     id="defs95" />
  <sodipodi:namedview
     id="base"
     pagecolor="#ffffff"
     bordercolor="#666666"
     borderopacity="1.0"
     inkscape:pageopacity="0.0"
     inkscape:pageshadow="2"
     inkscape:zoom="0.98994949"
     inkscape:cx="206.87183"
     inkscape:cy="155.42314"
     inkscape:document-units="mm"
     inkscape:current-layer="layer1"
     showgrid="false"
     inkscape:window-width="2560"
     inkscape:window-height="1377"
     inkscape:window-x="1912"
     inkscape:window-y="-8"
     inkscape:window-maximized="1" />
  <metadata
     id="metadata98">
    <rdf:RDF>
      <cc:Work
         rdf:about="">
        <dc:format>image/svg+xml</dc:format>
        <dc:type
           rdf:resource="http://purl.org/dc/dcmitype/StillImage" />
        <dc:title />
      </cc:Work>
    </rdf:RDF>
  </metadata>
  <g
     inkscape:label="Layer 1"
     inkscape:groupmode="layer"
     id="layer1"
     transform="translate(-95.250001,-73.449858)">
    <path
       d="m 195.2655,80.287003 c -5.30332,0 -11.77072,0 -17.07405,0 C 151.35826,65.650449 95.250001,79.06729 95.250001,79.06729 v 7.318279 c 8.842919,2.439427 8.233069,9.757703 8.233069,9.757703 0,0 3.96407,19.210478 11.58727,24.394268 31.40761,8.84291 50.61809,-0.60987 53.0575,-2.43943 2.43944,-1.82957 7.92814,-12.80699 9.75773,-21.954838 0.91526,-4.577583 3.12879,-7.017007 5.11182,-8.312342 2.24547,-1.466096 5.2167,-1.466096 7.46218,0 1.98303,1.295335 4.19655,3.734759 5.11181,8.312342 1.82958,9.147848 7.31829,20.125268 9.75773,21.954838 2.4394,1.82956 21.64989,11.28234 53.05751,2.43943 7.6232,-5.18379 11.58727,-24.394268 11.58727,-24.394268 0,0 -0.30494,-7.318276 8.23307,-9.757703 V 79.06729 c 0,0 -56.10802,-13.416841 -82.94146,1.219713 z m -20.73414,12.197131 c -0.91481,5.793635 -1.52467,22.259766 -15.24645,25.918896 -13.72176,3.65915 -35.97871,3.20907 -43.90966,-3.04928 -7.93092,-6.25835 -9.83246,-34.939896 -2.43941,-36.28646 0,0 39.64068,-8.842917 59.46102,2.439427 2.1345,3.354211 3.04927,5.183782 2.1345,10.977417 z m 83.5503,22.869616 c -7.93056,6.25835 -30.18789,6.70843 -43.90966,3.04928 -13.72177,-3.65913 -14.3316,-20.125261 -15.24641,-25.918896 -0.91477,-5.793635 0,-7.623206 2.1345,-10.977417 19.82034,-11.282344 59.46101,-2.439427 59.46101,-2.439427 7.39271,1.346564 5.49117,30.02811 -2.43944,36.28646"
       style="fill:#000000;fill-opacity:1;fill-rule:nonzero;stroke:none;stroke-width:0.1219713"
       id="path24"
       inkscape:connector-curvature="0" />
    <path
       style="stroke-width:0.16335441"
       d="m 134.72974,123.98712 c -5.80574,-0.47191 -11.14709,-1.36387 -17.0908,-2.85401 -2.65975,-0.66683 -3.11435,-0.91684 -4.58613,-2.52208 -3.33015,-3.63213 -6.63267,-11.05104 -8.86453,-19.913639 -0.31766,-1.261363 -0.57755,-2.520754 -0.57755,-2.798647 0,-0.971006 -0.52275,-3.031779 -1.02605,-4.044899 -1.18263,-2.380539 -3.473141,-4.269444 -6.371345,-5.254226 L 95.36133,86.310117 95.31742,82.714133 95.27351,79.11815 96.134184,78.938911 c 16.774266,-3.49332 29.758236,-5.082292 43.822876,-5.363028 15.5467,-0.310318 28.48869,1.854002 37.11821,6.207369 l 1.18025,0.5954 h 8.50178 8.50176 l 1.4261,-0.714154 c 12.02254,-6.020644 31.80432,-7.636426 57.12993,-4.666396 6.97305,0.817755 17.30892,2.539832 23.11864,3.851834 l 1.13949,0.25733 v 3.631892 3.631893 l -0.69426,0.20532 c -2.5878,0.765321 -5.30438,3.005701 -6.39566,5.274583 -0.32877,0.683528 -0.70002,1.781698 -0.82503,2.44038 -0.12501,0.658681 -0.34824,1.856256 -0.4961,2.66128 -0.5672,3.088386 -2.63808,9.600636 -4.20972,13.238226 -1.91694,4.43685 -4.34643,8.13378 -6.3577,9.67447 -0.79124,0.6061 -1.1398,0.73241 -3.89115,1.41 -7.57132,1.86464 -13.33118,2.6628 -20.41931,2.82956 -9.99069,0.23506 -19.17727,-1.29818 -26.15589,-4.36543 -3.24013,-1.4241 -4.04182,-2.14007 -5.89132,-5.26133 -2.91859,-4.92548 -5.51579,-11.54604 -6.92868,-17.661992 -0.92771,-4.015762 -1.99239,-6.152486 -3.98479,-7.997087 -3.28757,-3.043704 -7.44795,-2.840163 -10.65968,0.521508 -1.8047,1.888959 -2.52275,3.431274 -3.54831,7.621426 -1.35431,5.533345 -2.68647,9.205315 -5.1549,14.208995 -1.53228,3.10603 -2.55477,4.81013 -3.72239,6.20385 -1.26737,1.51276 -7.30202,3.96823 -12.60918,5.1306 -5.34633,1.17095 -8.43323,1.50288 -14.62021,1.57206 -2.74028,0.0306 -5.79092,-0.0106 -6.77922,-0.0903 z m 11.36133,-3.42825 c 4.52424,-0.3466 8.89184,-1.01387 12.38255,-1.89179 5.69681,-1.43275 9.46165,-4.45207 12.11655,-9.7172 1.81739,-3.60419 2.72928,-7.11468 3.77245,-14.522748 0.57369,-4.07393 0.68544,-6.893369 0.33022,-8.331076 -0.25198,-1.019877 -1.06778,-2.806411 -1.81518,-3.975152 -0.45516,-0.711756 -0.686,-0.875701 -2.33761,-1.660237 -9.89886,-4.702074 -25.29405,-5.941531 -44.54977,-3.586676 -6.01459,0.735547 -12.89893,1.94707 -13.98055,2.460334 -1.65323,0.784506 -2.91628,3.645217 -3.52636,7.98689 -0.26395,1.878364 -0.25993,7.630597 0.007,9.964619 0.63872,5.586146 1.78549,9.998886 3.52349,13.558416 1.53679,3.14744 2.82875,4.52584 5.64703,6.02482 3.34164,1.77736 9.22723,3.16606 15.59872,3.68051 2.42959,0.19616 10.3176,0.20189 12.8315,0.009 z m 96.53426,-0.23233 c 8.42056,-1.0466 13.77319,-2.97445 16.53209,-5.95432 2.15517,-2.32778 4.01976,-6.8585 5.09767,-12.38667 0.72429,-3.714544 0.95691,-6.692794 0.85835,-10.98886 -0.11024,-4.807021 -0.51457,-7.040204 -1.69903,-9.384898 -1.20794,-2.391167 -1.64193,-2.565094 -9.59929,-3.847107 -17.51705,-2.822171 -33.35831,-2.727767 -44.25075,0.263709 -2.69303,0.739604 -4.29184,1.329868 -6.64891,2.454691 -1.77151,0.845381 -1.92615,0.957811 -2.40333,1.747218 -2.23119,3.691086 -2.40026,5.419605 -1.2809,13.095278 0.91623,6.282799 1.78737,9.702159 3.29697,12.941189 2.11744,4.54323 5.57689,7.97807 9.59638,9.52814 3.21182,1.23862 8.6276,2.19905 15.96221,2.83075 0.4043,0.0348 3.34468,0.0434 6.53418,0.0191 4.20959,-0.032 6.40354,-0.11929 8.00436,-0.31826 z"
       id="path113"
       inkscape:connector-curvature="0" />
    <path
       style="stroke-width:0.16335441"
       d="m 135.62819,124.05671 c -3.70437,-0.25581 -8.48037,-0.88799 -12.33004,-1.63209 -3.23774,-0.62582 -7.93116,-1.83738 -8.51458,-2.19796 -1.36573,-0.84407 -3.64435,-3.78129 -5.19561,-6.69736 -2.52309,-4.74292 -5.65626,-14.146367 -6.05913,-18.184985 -0.23293,-2.33506 -1.03902,-4.126261 -2.59924,-5.775753 -1.183792,-1.25152 -2.302139,-1.980398 -4.23276,-2.758679 l -1.3355,-0.538374 -0.0439,-3.57546 -0.0439,-3.57546 2.412538,-0.512658 c 11.216142,-2.383404 22.855932,-3.984337 34.838382,-4.791662 3.97114,-0.267559 16.16867,-0.268573 19.3575,-0.0016 10.71774,0.897273 18.24384,2.634916 24.56409,5.671418 l 1.85782,0.892573 h 8.45515 8.45516 l 2.02028,-0.966943 c 11.84855,-5.670928 30.51175,-7.271172 54.37536,-4.662321 7.92935,0.86686 16.57445,2.243717 23.99808,3.822033 1.29448,0.275219 2.37875,0.500395 2.40948,0.500395 0.0307,0 0.0559,1.642329 0.0559,3.649619 v 3.649616 l -0.69426,0.207759 c -1.77525,0.531252 -4.09557,2.077096 -5.1834,3.453293 -1.35958,1.720009 -1.96623,3.211247 -2.28635,5.620186 -0.36466,2.74403 -2.19317,8.932453 -3.89216,13.172613 -2.05523,5.12927 -4.69145,9.3402 -6.90367,11.0275 -0.78791,0.60095 -1.18158,0.75145 -3.50139,1.33859 -11.43408,2.89389 -22.85177,3.68974 -32.91592,2.29434 -7.3145,-1.01417 -15.07381,-3.53759 -17.5241,-5.69904 -1.07938,-0.95216 -2.49348,-3.16467 -4.1209,-6.44763 -2.37839,-4.79788 -3.98007,-9.21449 -5.23904,-14.446564 -0.97925,-4.069619 -1.8113,-5.828334 -3.62527,-7.662631 -1.50789,-1.524817 -2.85917,-2.267408 -4.45665,-2.449147 -2.5595,-0.291181 -4.40264,0.422215 -6.47131,2.504746 -1.88456,1.897186 -2.55941,3.329228 -3.65679,7.759734 -0.96914,3.912772 -2.09217,7.337852 -3.45313,10.531542 -1.18064,2.77052 -3.10746,6.543 -4.10933,8.04555 -1.40777,2.1113 -1.76169,2.41913 -4.08794,3.55565 -4.55934,2.22754 -10.42127,3.7847 -17.25509,4.58362 -2.10183,0.24573 -10.90634,0.44484 -13.06835,0.29554 z m 10.29951,-3.49759 c 5.41875,-0.41455 11.67967,-1.48021 14.4887,-2.46609 6.8854,-2.41657 10.97791,-7.97073 12.92822,-17.5456 0.79171,-3.886828 1.51714,-9.505716 1.5283,-11.837702 0.008,-1.800342 -0.0419,-2.193304 -0.42668,-3.321347 -0.68485,-2.007546 -1.78534,-3.785307 -2.66078,-4.298354 -1.0531,-0.617152 -4.12274,-1.892629 -6.01878,-2.500875 -9.67058,-3.102306 -23.71342,-3.706383 -39.7764,-1.711052 -6.54201,0.812645 -12.9547,1.962422 -14.04371,2.517998 -4.3015,2.19446 -4.99108,17.03394 -1.30574,28.099392 0.69315,2.08125 2.09406,4.9092 3.06781,6.19286 2.3655,3.11835 7.5422,5.26596 15.38538,6.38275 1.30275,0.1855 3.14049,0.39878 4.08385,0.47396 2.51017,0.20002 10.20799,0.20851 12.74983,0.0141 z m 93.67837,-10e-4 c 8.45989,-0.54998 15.63547,-2.62111 18.77466,-5.41904 2.9406,-2.62091 5.12352,-8.08105 6.32095,-15.810645 0.49415,-3.189815 0.54686,-10.767493 0.0921,-13.231707 -0.68802,-3.727574 -2.01665,-6.256162 -3.60048,-6.852323 -1.0508,-0.395517 -5.52108,-1.230289 -10.07346,-1.881096 -20.79705,-2.973138 -37.69288,-1.889347 -48.10787,3.085905 -0.98831,0.472109 -1.91936,0.998688 -2.06901,1.170175 -0.14968,0.171488 -0.57203,0.869073 -0.93859,1.550191 -1.6283,3.025577 -1.78312,4.638066 -1.00116,10.427546 0.83883,6.210419 1.42228,9.053904 2.47127,12.043734 2.09351,5.96697 5.60501,10.03983 10.35862,12.01462 3.03693,1.26163 10.26509,2.57188 16.33544,2.96112 2.04267,0.13098 9.07661,0.095 11.43761,-0.0585 z"
       id="path115"
       inkscape:connector-curvature="0" />
  </g>
</svg>
